<svg width="302" height="195" viewBox="0 0 302 195" fill="none" xmlns="http://www.w3.org/2000/svg">
<path d="M50.3395 189.257C45.4574 190.844 41.4997 191.197 38.4662 190.318C35.4617 189.528 33.3393 187.225 32.0991 183.408C32.0126 183.141 32.1912 182.936 32.635 182.792C33.2564 182.59 34.4381 182.452 36.1801 182.376C37.922 182.301 41.0565 181.528 45.5836 180.057C53.2174 177.576 60.0002 174.44 65.9321 170.648C71.8351 166.768 76.6486 162.554 80.3726 158.007C84.1853 153.432 86.7731 148.862 88.1359 144.297C89.5587 139.615 89.6211 135.277 88.3233 131.282C87.1408 127.643 85.1682 125.045 82.4055 123.49C79.6429 121.934 76.3876 121.127 72.6395 121.069C68.9803 120.982 65.1401 121.396 61.1191 122.31C57.0692 123.135 53.1358 124.168 49.3189 125.408C47.6324 125.956 45.9159 126.563 44.1694 127.228C42.4829 127.776 40.8851 128.295 39.3761 128.786C39.6707 136.639 40.024 144.522 40.4362 152.436C40.8484 160.349 41.1441 168.055 41.3233 175.553C39.1041 176.274 37.0382 176.258 35.1254 175.506C33.2126 174.753 31.9678 173.49 31.3909 171.714C31.0448 170.649 30.863 169.334 30.8453 167.77C30.8277 166.205 30.8089 164.788 30.7891 163.519C30.7448 161.571 30.7107 158.294 30.6866 153.69C30.6625 149.085 30.674 143.684 30.7211 137.486C30.8569 131.259 31.0837 124.709 31.4015 117.834C31.7193 110.959 32.1248 104.203 32.6179 97.566C33.1998 90.9 33.9092 84.9285 34.7462 79.6516C31.22 81.4843 28.3572 83.3958 26.158 85.3862C24.0475 87.3477 22.4407 89.0474 21.3378 90.4853C20.2059 91.8344 19.3293 92.6099 18.708 92.8118C18.2642 92.956 17.6295 92.9659 16.804 92.8416C16.0384 92.5996 15.3028 92.2989 14.5972 91.9394C13.8627 91.4911 13.4234 91.045 13.2792 90.6012C17.1118 87.295 21.1796 84.1087 25.4826 81.0423C29.8744 77.947 35.5321 75.2745 42.4558 73.0248C45.385 72.0731 48.7115 71.2867 52.4352 70.6656C56.13 69.9557 59.8203 69.8362 63.5062 70.3069C67.1632 70.6888 70.474 71.9684 73.4385 74.1455C76.3742 76.2339 78.5919 79.586 80.0917 84.2018C81.5049 88.5513 81.7842 92.5822 80.9296 96.2947C80.0462 99.9184 78.4271 103.241 76.0724 106.264C73.6889 109.197 70.9093 111.818 67.7337 114.125C64.558 116.433 61.3258 118.415 58.037 120.073C64.721 118.293 70.3053 117.509 74.7901 117.721C79.3636 117.903 83.0172 118.728 85.751 120.195C88.5448 121.544 90.6716 123.257 92.1316 125.334C93.5916 127.412 94.6677 129.515 95.3599 131.646C97.0327 136.794 97.2155 141.887 95.9081 146.924C94.6006 151.961 92.2769 156.74 88.9369 161.26C85.5968 165.78 81.6843 169.897 77.1993 173.612C72.7431 177.415 68.1438 180.627 63.4014 183.247C58.6879 185.956 54.3339 187.96 50.3395 189.257ZM39.1799 125.464C44.0044 123.7 48.669 121.595 53.1739 119.15C57.7388 116.588 61.6867 113.637 65.0178 110.297C68.3489 106.958 70.6792 103.256 72.0087 99.1933C73.427 95.1014 73.343 90.6144 71.7567 85.7323C70.2569 81.1165 67.9937 77.9264 64.967 76.162C62.0291 74.3688 58.6706 73.5464 54.8915 73.6948C51.2011 73.8144 47.4475 74.4942 43.6306 75.7344C43.1868 75.8786 42.7429 76.0228 42.2991 76.167C41.9441 76.2824 41.559 76.4566 41.144 76.6896C39.9674 83.9414 39.259 91.7281 39.0187 100.05C38.8672 108.342 38.9209 116.814 39.1799 125.464ZM120.845 158.253C117.028 159.493 113.931 159.174 111.555 157.297C109.207 155.508 107.485 152.927 106.389 149.554C105.495 146.802 105.016 143.817 104.952 140.6C104.888 137.382 105.148 134.255 105.732 131.22C106.404 128.155 107.369 125.536 108.625 123.361C109.97 121.158 111.574 119.753 113.438 119.147C113.882 119.003 114.355 118.948 114.856 118.981C115.418 118.897 115.949 118.871 116.451 118.905C115.883 119.874 115.339 121.523 114.819 123.851C114.36 126.061 114.046 128.567 113.877 131.37C113.679 134.084 113.615 136.755 113.683 139.382C113.841 141.981 114.193 144.123 114.741 145.81C115.606 148.473 116.685 150.281 117.976 151.236C119.239 152.101 120.58 152.303 122.001 151.842C123.865 151.236 125.766 149.539 127.706 146.749C129.617 143.871 131.31 140.475 132.786 136.561C129.638 135.327 126.819 133.298 124.332 130.476C121.905 127.535 120.129 124.334 119.004 120.872C118.052 117.943 117.646 115.032 117.786 112.141C118.015 109.221 118.86 106.689 120.323 104.545C121.757 102.313 123.849 100.75 126.601 99.8557C130.241 98.6732 132.999 98.8565 134.876 100.406C136.753 101.955 138.168 104.194 139.12 107.123C140.244 110.585 140.656 114.72 140.354 119.529C140.023 124.249 139.204 128.98 137.899 133.722C139.786 134.09 141.616 133.986 143.392 133.409C144.812 132.948 146.323 132.162 147.925 131.053C149.499 129.855 150.898 128.272 152.123 126.303C153.437 124.306 154.237 121.936 154.524 119.194L156.554 120.006C156.134 124.755 154.571 128.55 151.863 131.393C149.215 134.118 146.427 135.956 143.498 136.908C142.344 137.283 141.205 137.554 140.083 137.723C138.931 137.803 137.795 137.779 136.674 137.653C134.954 142.628 132.707 147.038 129.933 150.884C127.247 154.7 124.218 157.157 120.845 158.253ZM134.058 132.32C135.21 128.315 135.919 124.306 136.186 120.294C136.513 116.164 136.157 112.502 135.118 109.306C134.282 106.732 133.277 104.998 132.103 104.103C130.989 103.091 129.855 102.773 128.701 103.148C126.926 103.725 125.524 105.603 124.497 108.783C123.469 111.963 123.59 115.506 124.859 119.411C125.695 121.985 126.901 124.489 128.477 126.921C130.112 129.235 131.972 131.035 134.058 132.32ZM169.475 142.452C165.658 143.692 162.562 143.373 160.185 141.496C157.837 139.707 156.116 137.126 155.02 133.753C154.126 131.001 153.646 128.017 153.582 124.799C153.518 121.581 153.778 118.455 154.362 115.419C155.035 112.354 155.999 109.735 157.255 107.56C158.6 105.357 160.204 103.952 162.069 103.347C162.512 103.202 162.985 103.147 163.487 103.18C164.048 103.096 164.579 103.07 165.081 103.104C164.513 104.073 163.969 105.722 163.45 108.05C162.99 110.26 162.676 112.767 162.507 115.569C162.309 118.283 162.245 120.954 162.313 123.581C162.471 126.18 162.823 128.322 163.371 130.009C164.237 132.672 165.315 134.48 166.606 135.435C167.869 136.3 169.21 136.502 170.631 136.041C172.495 135.435 174.397 133.738 176.336 130.948C178.247 128.07 179.941 124.674 181.417 120.76C178.268 119.526 175.45 117.497 172.962 114.675C170.535 111.734 168.759 108.533 167.634 105.071C166.682 102.142 166.276 99.2315 166.416 96.3401C166.645 93.4198 167.491 90.8879 168.953 88.7444C170.387 86.5121 172.48 84.9489 175.231 84.0548C178.871 82.8723 181.629 83.0556 183.506 84.6046C185.383 86.1537 186.798 88.3928 187.75 91.3221C188.875 94.7839 189.286 98.9192 188.984 103.728C188.653 108.448 187.835 113.179 186.53 117.921C188.416 118.289 190.246 118.185 192.022 117.608C193.442 117.147 194.953 116.362 196.556 115.252C198.129 114.054 199.528 112.471 200.753 110.503C202.067 108.505 202.867 106.136 203.154 103.393L205.184 104.205C204.764 108.954 203.201 112.75 200.493 115.592C197.846 118.317 195.057 120.155 192.128 121.107C190.974 121.482 189.836 121.754 188.713 121.922C187.561 122.002 186.425 121.979 185.304 121.852C183.584 126.827 181.337 131.237 178.563 135.083C175.878 138.899 172.848 141.356 169.475 142.452ZM182.688 116.519C183.84 112.514 184.55 108.505 184.816 104.493C185.143 100.364 184.787 96.7009 183.749 93.5054C182.912 90.9312 181.907 89.1969 180.733 88.3025C179.619 87.2905 178.485 86.972 177.331 87.347C175.556 87.9238 174.155 89.8021 173.127 92.982C172.099 96.1619 172.22 99.7046 173.489 103.61C174.325 106.185 175.531 108.688 177.107 111.12C178.742 113.435 180.603 115.234 182.688 116.519ZM275.982 107.698C272.875 108.708 270.294 108.467 268.239 106.976C266.213 105.573 264.768 103.54 263.902 100.877C263.181 98.6581 262.771 96.3381 262.671 93.917C262.66 91.4672 262.62 89.0761 262.549 86.7439C262.567 84.3828 262.302 82.3589 261.754 80.6724C261.177 78.8971 260.374 77.7842 259.344 77.3336C258.314 76.8831 257.311 76.8164 256.335 77.1337C254.116 77.8547 252.237 80.3788 250.699 84.7059C249.25 89.0041 247.463 94.9822 245.339 102.64C244.611 105.232 244.119 107.796 243.863 110.332C243.579 112.78 243.282 115.036 242.971 117.099C242.261 117.33 241.344 117.53 240.221 117.698C239.099 117.867 238.021 117.874 236.989 117.718C236.075 117.623 235.517 117.264 235.315 116.643C235.113 116.022 235.037 114.427 235.086 111.86C235.195 109.175 235.277 106.106 235.333 102.653C235.448 99.0822 235.387 95.5694 235.147 92.1143C234.968 88.5415 234.503 85.6012 233.753 83.2933C233.263 81.7843 232.607 80.6725 231.786 79.9579C231.025 79.1257 230.023 78.9115 228.78 79.3152C226.828 79.9498 224.865 81.9124 222.892 85.2031C220.89 88.4051 219.044 92.3905 217.355 97.1591C215.666 101.928 214.24 107.053 213.077 112.534C211.974 117.897 211.359 123.102 211.232 128.148C210.433 128.408 209.413 128.592 208.173 128.7C206.932 128.809 205.84 128.771 204.897 128.587C203.865 128.432 203.277 128.132 203.133 127.688C202.96 127.156 202.944 125.444 203.084 122.552C203.106 119.601 203.147 116.104 203.208 112.06C203.15 107.957 202.945 103.853 202.593 99.7477C202.329 95.6136 201.721 92.0819 200.769 89.1526C201.1 88.3582 201.741 87.4629 202.694 86.4666C203.646 85.4703 204.743 84.7702 205.986 84.3664C207.228 83.9627 208.217 83.9849 208.951 84.4332C209.775 84.8527 210.359 85.595 210.705 86.6602C211.08 87.8141 211.374 89.9267 211.587 92.998C211.86 95.9516 212.056 99.2735 212.176 102.964C213.028 99.5466 214.088 96.0128 215.355 92.3625C216.682 88.5946 218.185 85.0641 219.863 81.7711C221.541 78.4781 223.377 75.6733 225.372 73.3568C227.427 70.9226 229.653 69.3161 232.05 68.5374C234.802 67.6433 236.997 68.0585 238.637 69.7828C240.337 71.3895 241.634 73.5688 242.528 76.3205C243.249 78.5396 243.747 80.9784 244.022 83.6369C244.357 86.1778 244.56 88.6143 244.63 90.9466C244.672 93.1901 244.629 95.0197 244.5 96.4355C245.268 92.4567 246.257 88.5534 247.467 84.7256C248.736 80.7802 250.386 77.3984 252.414 74.5803C254.414 71.6735 256.922 69.7298 259.94 68.7491C262.781 67.8262 265.008 68.035 266.621 69.3754C268.323 70.687 269.549 72.4968 270.299 74.8047C271.048 77.1126 271.471 79.7721 271.566 82.7834C271.661 85.7947 271.683 88.7317 271.632 91.5943C271.67 94.4281 271.991 96.777 272.597 98.6411C272.972 99.795 273.584 100.774 274.434 101.577C275.344 102.263 276.553 102.361 278.062 101.87C280.548 101.063 282.495 99.2032 283.904 96.2919C285.374 93.2629 286.521 89.8479 287.347 86.0466C288.144 82.1567 288.718 78.4863 289.069 75.0357L291.272 76.3806C291.063 80.5702 290.455 84.8896 289.447 89.3388C288.41 93.6992 286.773 97.5681 284.533 100.945C282.383 104.294 279.532 106.545 275.982 107.698Z" fill="#DCAE96"/>
</svg>
