<svg width="306" height="81" viewBox="0 0 306 81" fill="none" xmlns="http://www.w3.org/2000/svg">
<path d="M17.04 76.8C15.6 76.8 13.84 76.76 11.76 76.68C9.76 76.6 7.8 76.36 5.88 75.96C4.04 75.64 2.64 75.08 1.68 74.28C1.2 73.8 0.88 73.16 0.72 72.36C0.64 71.56 0.6 70.96 0.6 70.56C0.6 68.88 0.88 66.4 1.44 63.12C2 59.76 2.68 55.96 3.48 51.72C4.36 47.4 5.28 43 6.24 38.52C7.2 33.96 8.08 29.6 8.88 25.44C9.76 21.28 10.48 17.64 11.04 14.52C11.6 11.32 11.88 9.04 11.88 7.67999C11.88 7.27999 11.76 7.04 11.52 6.96C11.28 6.8 10.76 6.68 9.96 6.59999C9.24 6.51999 8.6 6.48 8.04 6.48C7.56 6.4 7.32 6.08 7.32 5.51999C7.32 4.39999 8.36 3.68 10.44 3.36C12.52 3.04 14.76 2.88 17.16 2.88C17.64 2.88 18.16 2.96 18.72 3.12C19.28 3.28 19.56 3.68 19.56 4.31999C19.56 4.71999 19.48 5.11999 19.32 5.51999C19.16 5.83999 19.04 6.19999 18.96 6.59999C18.4 8.2 17.72 10.64 16.92 13.92C16.12 17.2 15.28 20.8 14.4 24.72C13.52 28.64 12.68 32.48 11.88 36.24C11.08 39.92 10.44 43.04 9.96 45.6C9.16 49.2 8.44 52.88 7.8 56.64C7.16 60.4 6.84 63.8 6.84 66.84C6.84 67.56 6.84 68.24 6.84 68.88C6.92 69.52 7 70.16 7.08 70.8C7.16 71.44 7.76 71.96 8.88 72.36C10.08 72.68 11.44 72.92 12.96 73.08C14.56 73.16 16.08 73.24 17.52 73.32C18.96 73.32 20 73.32 20.64 73.32C22.72 73.32 24.96 73.28 27.36 73.2C29.76 73.04 32.28 72.8 34.92 72.48C37 72.24 38.92 71.84 40.68 71.28C42.44 70.72 43.72 70.32 44.52 70.08H44.76C45.4 70.08 45.72 70.36 45.72 70.92C45.72 71.64 44.8 72.36 42.96 73.08C41.12 73.72 38.72 74.36 35.76 75C32.8 75.56 29.64 76 26.28 76.32C23 76.64 19.92 76.8 17.04 76.8ZM84.1519 77.52C76.8719 77.52 70.8719 76.08 66.1519 73.2C61.5119 70.32 58.0719 66.52 55.8319 61.8C53.5919 57 52.4719 51.88 52.4719 46.44C52.4719 41.16 53.4719 35.88 55.4719 30.6C57.5519 25.24 60.5119 20.32 64.3519 15.84C68.2719 11.36 73.0319 7.8 78.6319 5.16C84.3119 2.43999 90.7919 1.07999 98.0719 1.07999C105.432 1.07999 111.432 2.51999 116.072 5.39999C120.792 8.28 124.272 12.08 126.512 16.8C128.832 21.44 129.992 26.48 129.992 31.92C129.992 37.2 128.952 42.56 126.872 48C124.872 53.36 121.912 58.28 117.992 62.76C114.072 67.16 109.272 70.72 103.592 73.44C97.9119 76.16 91.4319 77.52 84.1519 77.52ZM84.7519 75C90.9119 75 96.3919 73.72 101.192 71.16C106.072 68.6 110.192 65.24 113.552 61.08C116.912 56.84 119.472 52.2 121.232 47.16C122.992 42.04 123.872 37 123.872 32.04C123.872 27 122.912 22.36 120.992 18.12C119.152 13.8 116.232 10.36 112.232 7.8C108.232 5.16 103.112 3.83999 96.8719 3.83999C90.7919 3.83999 85.3919 5.11999 80.6719 7.67999C75.9519 10.24 71.9519 13.6 68.6719 17.76C65.3919 21.92 62.9119 26.52 61.2319 31.56C59.5519 36.52 58.7119 41.48 58.7119 46.44C58.7119 51.48 59.6319 56.2 61.4719 60.6C63.3119 64.92 66.1519 68.4 69.9919 71.04C73.8319 73.68 78.7519 75 84.7519 75ZM200.128 80.64C199.648 80.64 199.368 80.44 199.288 80.04C199.208 79.64 199.168 79.32 199.168 79.08C199.168 78.04 199.368 76.56 199.768 74.64C200.168 72.64 200.648 70.6 201.208 68.52C201.768 66.36 202.288 64.44 202.768 62.76C203.248 61 203.568 59.8 203.728 59.16C199.808 64.6 194.968 68.96 189.208 72.24C183.528 75.52 176.968 77.16 169.528 77.16C163.448 77.16 158.288 75.76 154.048 72.96C149.888 70.08 146.728 66.4 144.568 61.92C142.408 57.36 141.328 52.56 141.328 47.52C141.328 42.08 142.328 36.64 144.328 31.2C146.328 25.76 149.248 20.8 153.088 16.32C157.008 11.76 161.768 8.12 167.368 5.39999C172.968 2.68 179.408 1.32 186.688 1.32C189.968 1.32 193.328 1.8 196.768 2.75999C200.288 3.72 203.648 5.4 206.848 7.8C207.088 6.92 207.208 6.12 207.208 5.39999C207.288 4.67999 207.328 4.04 207.328 3.48C207.328 2.92 207.328 2.43999 207.328 2.04C207.328 1.64 207.288 1.28 207.208 0.959995V0.839996C207.208 0.359998 207.568 0.119998 208.288 0.119998C208.928 0.119998 209.368 0.519998 209.608 1.32C209.928 2.12 210.088 3.12 210.088 4.31999C210.088 5.2 210.008 6.16 209.848 7.2C209.768 8.16 209.648 9.08 209.488 9.95999C210.048 10.68 210.568 11.52 211.048 12.48C211.608 13.36 211.888 14.32 211.888 15.36C211.888 15.52 211.848 15.8 211.768 16.2C211.768 16.52 211.608 16.68 211.288 16.68C210.728 16.68 210.248 16.24 209.848 15.36C209.448 14.4 209.048 13.76 208.648 13.44C208.568 14.16 208.368 15.24 208.048 16.68C207.808 18.12 207.528 19.68 207.208 21.36C206.888 23.04 206.528 24.6 206.128 26.04C205.808 27.4 205.488 28.36 205.168 28.92C204.848 29.56 204.248 29.88 203.368 29.88C202.808 29.88 202.208 29.8 201.568 29.64C200.928 29.4 200.608 28.92 200.608 28.2C200.608 27.24 200.848 25.96 201.328 24.36C201.808 22.76 202.208 21.52 202.528 20.64C202.928 19.36 203.488 17.72 204.208 15.72C205.008 13.72 205.528 12.12 205.768 10.92C203.128 8.6 199.888 6.88 196.048 5.76C192.288 4.64 188.888 4.08 185.848 4.08C180.808 4.08 175.968 5.08 171.328 7.07999C166.688 9.08 162.568 12 158.968 15.84C155.448 19.6 152.648 24.2 150.568 29.64C148.488 35.08 147.448 41.2 147.448 48C147.448 52.64 148.368 56.92 150.208 60.84C152.048 64.76 154.768 67.92 158.368 70.32C162.048 72.72 166.648 73.92 172.168 73.92C175.928 73.92 179.688 73.16 183.448 71.64C187.288 70.04 190.848 67.92 194.128 65.28C197.488 62.64 200.328 59.64 202.648 56.28C204.968 52.84 206.568 49.32 207.448 45.72C204.968 45.88 202.328 46.16 199.528 46.56C196.728 46.88 194.088 47.2 191.608 47.52C189.128 47.76 187.048 47.88 185.368 47.88C184.648 47.88 183.968 47.76 183.328 47.52C182.688 47.2 182.368 46.68 182.368 45.96C182.368 45 182.808 44.12 183.688 43.32C184.648 42.52 185.288 42.2 185.608 42.36C186.088 42.52 186.888 42.68 188.008 42.84C189.128 43 190.448 43.08 191.968 43.08C194.208 43.08 197.088 43 200.608 42.84C204.128 42.68 207.808 42.52 211.648 42.36C215.568 42.12 219.088 41.92 222.208 41.76C222.368 41.76 222.568 41.8 222.808 41.88C223.128 41.88 223.288 41.96 223.288 42.12C223.288 42.6 222.768 43 221.728 43.32C220.768 43.56 219.608 43.8 218.248 44.04C216.968 44.28 215.768 44.56 214.648 44.88C213.528 45.12 212.848 45.44 212.608 45.84C212.288 46.4 212.008 47.08 211.768 47.88C211.528 48.6 211.288 49.28 211.048 49.92C210.408 51.52 209.608 53.64 208.648 56.28C207.688 58.84 206.808 61.48 206.008 64.2C205.288 66.84 204.928 69.04 204.928 70.8C204.928 72.08 205.128 72.88 205.528 73.2C205.928 73.52 206.328 73.72 206.728 73.8C207.128 73.8 207.328 74.12 207.328 74.76C207.328 75.64 206.928 76.44 206.128 77.16C205.408 77.96 204.648 78.56 203.848 78.96C203.448 79.2 202.808 79.52 201.928 79.92C201.128 80.4 200.528 80.64 200.128 80.64ZM259.582 77.52C252.302 77.52 246.302 76.08 241.582 73.2C236.942 70.32 233.502 66.52 231.262 61.8C229.022 57 227.902 51.88 227.902 46.44C227.902 41.16 228.902 35.88 230.902 30.6C232.982 25.24 235.942 20.32 239.782 15.84C243.702 11.36 248.462 7.8 254.062 5.16C259.742 2.43999 266.222 1.07999 273.502 1.07999C280.862 1.07999 286.862 2.51999 291.502 5.39999C296.222 8.28 299.702 12.08 301.942 16.8C304.262 21.44 305.422 26.48 305.422 31.92C305.422 37.2 304.382 42.56 302.302 48C300.302 53.36 297.342 58.28 293.422 62.76C289.502 67.16 284.702 70.72 279.022 73.44C273.342 76.16 266.862 77.52 259.582 77.52ZM260.182 75C266.342 75 271.822 73.72 276.622 71.16C281.502 68.6 285.622 65.24 288.982 61.08C292.342 56.84 294.902 52.2 296.662 47.16C298.422 42.04 299.302 37 299.302 32.04C299.302 27 298.342 22.36 296.422 18.12C294.582 13.8 291.662 10.36 287.662 7.8C283.662 5.16 278.542 3.83999 272.302 3.83999C266.222 3.83999 260.822 5.11999 256.102 7.67999C251.382 10.24 247.382 13.6 244.102 17.76C240.822 21.92 238.342 26.52 236.662 31.56C234.982 36.52 234.142 41.48 234.142 46.44C234.142 51.48 235.062 56.2 236.902 60.6C238.742 64.92 241.582 68.4 245.422 71.04C249.262 73.68 254.182 75 260.182 75Z" fill="black"/>
</svg>
