<svg width="875" height="330" viewBox="0 0 875 330" fill="none" xmlns="http://www.w3.org/2000/svg">
<path d="M34.5 121.05C33.4 121.05 32.1 120.85 30.6 120.45C29.2 120.15 27.8 119.55 26.4 118.65C25 117.85 23.85 116.65 22.95 115.05C22.05 113.55 21.6 111.55 21.6 109.05C21.6 105.55 22.45 100.95 24.15 95.2502C25.85 89.4502 27.8 83.0502 30 76.0502C31.7 70.6502 33.35 65.0502 34.95 59.2502C36.55 53.4502 37.85 47.6502 38.85 41.8502C39.95 36.0502 40.5 30.5002 40.5 25.2002C40.5 21.5002 40.35 18.0502 40.05 14.8502C39.85 11.6502 39.1 9.10024 37.8 7.20024C36.6 5.20024 34.5 4.20024 31.5 4.20024C28.7 4.20024 26.3 5.05024 24.3 6.75024C22.4 8.35024 20.8 10.4502 19.5 13.0502C18.3 15.6502 17.4 18.4002 16.8 21.3002C16.3 24.2002 16.05 26.9002 16.05 29.4002C16.05 32.7002 16.5 35.4002 17.4 37.5002C13.5 37.5002 10.75 36.4502 9.15 34.3502C7.55 32.1502 6.75 29.6002 6.75 26.7002C6.75 23.6002 7.45 20.5002 8.85 17.4002C10.35 14.3002 12.35 11.4502 14.85 8.85024C17.45 6.15024 20.4 4.00024 23.7 2.40024C27 0.800238 30.5 0.000239849 34.2 0.000239849C40.4 0.000239849 45 2.45024 48 7.35024C51.1 12.1502 52.65 18.6002 52.65 26.7002C52.65 34.0002 51.6 41.7502 49.5 49.9502C47.5 58.0502 45.25 65.9502 42.75 73.6502C41.15 78.6502 39.6 83.4502 38.1 88.0502C36.7 92.5502 35.55 96.7002 34.65 100.5C33.75 104.3 33.3 107.65 33.3 110.55C33.3 112.45 33.6 113.9 34.2 114.9C34.8 115.9 36 116.4 37.8 116.4C40.3 116.4 43.05 115.2 46.05 112.8C49.15 110.5 52.25 107.35 55.35 103.35C58.55 99.3502 61.6 94.9502 64.5 90.1502C67.5 85.2502 70.2 80.2502 72.6 75.1502C75.1 70.0502 77.15 65.2002 78.75 60.6002C80.45 56.0002 81.5 52.0502 81.9 48.7502C85.2 48.7502 87.5 49.6002 88.8 51.3002C90.2 53.0002 90.9 54.6002 90.9 56.1002C90.9 57.7002 90.25 60.1502 88.95 63.4502C87.65 66.7502 86.1 70.4502 84.3 74.5502C82.8 78.1502 81.25 82.0002 79.65 86.1002C78.15 90.2002 76.85 94.3002 75.75 98.4002C74.75 102.5 74.25 106.4 74.25 110.1C74.25 112 74.5 113.5 75 114.6C75.5 115.8 76.65 116.4 78.45 116.4C81.25 116.4 84.5 114.95 88.2 112.05C91.9 109.25 95.7 105.4 99.6 100.5C103.6 95.5002 107.45 89.9002 111.15 83.7002C114.95 77.5002 118.35 71.0502 121.35 64.3502C124.35 57.5502 126.75 50.9002 128.55 44.4002C130.35 37.9002 131.25 31.9002 131.25 26.4002C131.25 21.4002 130.5 17.7502 129 15.4502C127.5 13.0502 125.5 11.5002 123 10.8002C124.4 8.40024 125.85 6.65024 127.35 5.55024C128.95 4.45024 130.4 3.90024 131.7 3.90024C133.8 3.90024 135.85 5.25024 137.85 7.95024C139.85 10.6502 140.85 14.8502 140.85 20.5502C140.85 26.0502 139.8 32.3002 137.7 39.3002C135.7 46.3002 132.95 53.6002 129.45 61.2002C125.95 68.7002 121.95 76.0002 117.45 83.1002C112.95 90.2002 108.25 96.6002 103.35 102.3C98.45 108 93.6 112.55 88.8 115.95C84 119.35 79.55 121.05 75.45 121.05C73.55 121.05 71.6 120.65 69.6 119.85C67.6 119.05 65.9 117.8 64.5 116.1C63.2 114.5 62.55 112.4 62.55 109.8C62.55 108.3 62.8 106.4 63.3 104.1C63.9 101.7 64.65 99.1002 65.55 96.3002C60.45 103.5 55.2 109.4 49.8 114C44.5 118.7 39.4 121.05 34.5 121.05ZM150.743 114.6C144.643 114.6 140.043 112.9 136.943 109.5C133.943 106.2 132.443 102.1 132.443 97.2002C132.443 92.7002 133.543 87.9502 135.743 82.9502C138.043 77.9502 141.043 73.2502 144.743 68.8502C148.543 64.4502 152.693 60.9002 157.193 58.2002C161.693 55.4002 166.143 54.0002 170.543 54.0002C172.843 54.0002 174.943 54.6002 176.843 55.8002C178.843 57.0002 179.843 59.4502 179.843 63.1502C179.843 66.9502 178.693 70.5502 176.393 73.9502C174.193 77.2502 171.243 80.2002 167.543 82.8002C163.943 85.4002 159.943 87.5502 155.543 89.2502C151.243 90.8502 146.943 91.8502 142.643 92.2502C142.443 93.2502 142.293 94.2002 142.193 95.1002C142.093 96.0002 142.043 96.8502 142.043 97.6502C142.043 99.1502 142.193 100.65 142.493 102.15C142.893 103.65 143.543 105.05 144.443 106.35C145.343 107.55 146.543 108.5 148.043 109.2C149.643 109.9 151.593 110.25 153.893 110.25C158.193 110.25 162.443 109.05 166.643 106.65C170.843 104.15 174.743 100.9 178.343 96.9002C181.943 92.9002 184.993 88.5002 187.493 83.7002L189.293 85.0502C186.593 91.0502 183.143 96.2502 178.943 100.65C174.843 105.05 170.343 108.45 165.443 110.85C160.643 113.35 155.743 114.6 150.743 114.6ZM143.393 89.4002C146.093 88.5002 149.143 87.2002 152.543 85.5002C155.943 83.7002 159.193 81.6002 162.293 79.2002C165.493 76.8002 168.093 74.1502 170.093 71.2502C172.193 68.3502 173.243 65.3002 173.243 62.1002C173.243 61.0002 173.043 60.1502 172.643 59.5502C172.243 58.9502 171.393 58.6502 170.093 58.6502C167.693 58.6502 165.143 59.6002 162.443 61.5002C159.743 63.3002 157.143 65.7002 154.643 68.7002C152.143 71.7002 149.893 75.0002 147.893 78.6002C145.893 82.2002 144.393 85.8002 143.393 89.4002ZM251.509 121.05C247.009 121.05 243.909 120.05 242.209 118.05C240.509 116.05 239.659 113.5 239.659 110.4C239.659 107.5 240.259 104.05 241.459 100.05C242.659 96.0502 243.909 92.2002 245.209 88.5002C246.909 83.6002 248.959 77.8502 251.359 71.2502C253.759 64.6502 256.309 57.7502 259.009 50.5502C261.809 43.3502 264.609 36.2502 267.409 29.2502C270.309 22.2502 273.109 15.9002 275.809 10.2002C268.909 10.3002 263.109 10.4502 258.409 10.6502C253.809 10.8502 249.659 11.1502 245.959 11.5502C242.259 11.8502 238.209 12.4002 233.809 13.2002C234.109 9.80024 235.859 7.15024 239.059 5.25023C242.259 3.35024 246.559 2.00024 251.959 1.20024C257.359 0.400241 263.509 0.000239849 270.409 0.000239849C277.309 0.000239849 283.459 0.300239 288.859 0.900237C294.359 1.40024 299.509 1.90024 304.309 2.40024C309.109 2.90024 313.909 3.20024 318.709 3.30024C315.309 6.40024 311.409 8.35024 307.009 9.15024C302.609 9.95024 297.959 10.3502 293.059 10.3502C291.959 10.3502 290.809 10.3502 289.609 10.3502C288.409 10.2502 287.209 10.2002 286.009 10.2002C284.809 10.2002 283.609 10.2002 282.409 10.2002C279.209 18.2002 275.509 28.3002 271.309 40.5002C267.209 52.7002 263.059 66.4502 258.859 81.7502C257.459 87.0502 256.159 91.8002 254.959 96.0002C253.859 100.2 252.959 104.05 252.259 107.55C251.659 111.05 251.359 114.45 251.359 117.75C251.359 118.25 251.359 118.8 251.359 119.4C251.359 120 251.409 120.55 251.509 121.05ZM291.304 115.05C288.204 115.05 285.604 114 283.504 111.9C281.304 109.9 280.204 106.8 280.204 102.6C280.204 99.0002 281.004 95.1502 282.604 91.0502C284.204 86.8502 286.404 82.7502 289.204 78.7502C292.004 74.6502 295.154 70.9502 298.654 67.6502C302.254 64.2502 306.004 61.5502 309.904 59.5502C313.904 57.5502 317.854 56.5502 321.754 56.5502C325.654 56.5502 328.904 57.6002 331.504 59.7002C334.104 61.7002 335.404 64.4002 335.404 67.8002C335.404 70.3002 334.704 72.0002 333.304 72.9002C332.004 73.8002 330.254 74.2502 328.054 74.2502C328.254 73.4502 328.404 72.6002 328.504 71.7002C328.704 70.7002 328.804 69.8002 328.804 69.0002C328.804 66.7002 328.254 64.7502 327.154 63.1502C326.054 61.4502 324.154 60.6002 321.454 60.6002C318.654 60.6002 315.804 61.6002 312.904 63.6002C310.004 65.5002 307.204 68.1002 304.504 71.4002C301.804 74.6002 299.404 78.1002 297.304 81.9002C295.204 85.7002 293.554 89.4502 292.354 93.1502C291.154 96.8502 290.554 100.15 290.554 103.05C290.554 106.95 291.904 108.9 294.604 108.9C296.904 108.9 299.404 107.85 302.104 105.75C304.804 103.55 307.554 100.8 310.354 97.5002C313.254 94.1002 316.004 90.6002 318.604 87.0002C321.204 83.4002 323.504 80.1002 325.504 77.1002C325.904 76.5002 326.154 76.2002 326.254 76.2002C326.854 76.3002 327.604 76.5002 328.504 76.8002C329.504 77.1002 330.354 77.5002 331.054 78.0002C331.754 78.5002 332.104 79.1502 332.104 79.9502C332.104 80.8502 331.654 82.1002 330.754 83.7002C329.854 85.2002 328.854 86.9502 327.754 88.9502C326.654 90.9502 325.654 93.0002 324.754 95.1002C323.854 97.1002 323.404 99.0002 323.404 100.8C323.404 102.3 323.804 103.8 324.604 105.3C325.404 106.7 326.704 107.4 328.504 107.4C331.204 107.4 334.754 105.45 339.154 101.55C343.554 97.5502 348.004 91.6002 352.504 83.7002L354.004 85.2002C351.904 90.6002 349.204 95.3502 345.904 99.4502C342.604 103.55 339.054 106.75 335.254 109.05C331.554 111.35 327.904 112.5 324.304 112.5C320.604 112.5 317.854 111.4 316.054 109.2C314.354 107 313.504 104.6 313.504 102C313.504 101.4 313.554 100.75 313.654 100.05C313.754 99.2502 313.854 98.4502 313.954 97.6502C309.654 103.45 305.704 107.8 302.104 110.7C298.604 113.6 295.004 115.05 291.304 115.05ZM393.986 113.7C391.186 113.7 388.786 112.75 386.786 110.85C384.786 108.95 383.186 106.55 381.986 103.65C380.886 100.75 380.036 97.8002 379.436 94.8002C378.936 91.7002 378.686 89.0002 378.686 86.7002C379.786 86.7002 381.386 86.4502 383.486 85.9502C385.586 85.3502 387.736 84.5002 389.936 83.4002C392.136 82.2002 393.986 80.7002 395.486 78.9002C397.086 77.0002 397.886 74.8002 397.886 72.3002C397.886 70.2002 397.136 68.5502 395.636 67.3502C394.136 66.1502 392.386 65.5502 390.386 65.5502C387.286 65.5502 384.386 66.6502 381.686 68.8502C378.986 70.9502 376.536 73.7502 374.336 77.2502C372.236 80.6502 370.336 84.3002 368.636 88.2002C366.936 92.1002 365.486 95.8002 364.286 99.3002C363.086 102.8 362.086 105.7 361.286 108C360.686 109.8 359.836 111 358.736 111.6C357.636 112.3 356.486 112.65 355.286 112.65C353.586 112.65 352.336 111.95 351.536 110.55C350.836 109.15 350.386 107.4 350.186 105.3C350.086 103.1 350.036 100.85 350.036 98.5502C350.036 93.3502 350.886 87.3502 352.586 80.5502C354.286 73.7502 356.536 66.7002 359.336 59.4002C362.236 52.0002 365.386 44.8502 368.786 37.9502C372.186 31.0502 375.586 24.8002 378.986 19.2002C382.386 13.6002 385.536 9.15024 388.436 5.85024C391.336 2.55024 393.686 0.900237 395.486 0.900237C396.886 0.900237 397.986 1.85024 398.786 3.75024C399.686 5.65024 400.136 7.95024 400.136 10.6502C400.136 14.0502 399.386 17.9002 397.886 22.2002C396.386 26.4002 394.236 30.6502 391.436 34.9502C388.736 39.2502 385.486 43.3002 381.686 47.1002C377.986 50.9002 373.936 54.1502 369.536 56.8502C366.236 64.9502 363.736 72.8502 362.036 80.5502C360.436 88.1502 359.636 94.5502 359.636 99.7502C361.236 95.7502 363.136 91.3502 365.336 86.5502C367.636 81.7502 370.236 77.1502 373.136 72.7502C376.036 68.3502 379.186 64.7502 382.586 61.9502C385.986 59.1502 389.536 57.7502 393.236 57.7502C396.936 57.7502 400.086 59.0502 402.686 61.6502C405.286 64.2502 406.586 67.4002 406.586 71.1002C406.586 74.3002 405.736 77.0502 404.036 79.3502C402.436 81.5502 400.436 83.3502 398.036 84.7502C395.736 86.0502 393.386 87.0502 390.986 87.7502C388.686 88.3502 386.786 88.6502 385.286 88.6502C385.386 89.4502 385.686 90.9002 386.186 93.0002C386.686 95.1002 387.386 97.3002 388.286 99.6002C389.286 101.9 390.486 103.9 391.886 105.6C393.286 107.2 394.986 108 396.986 108C399.886 108 402.636 106.9 405.236 104.7C407.836 102.5 410.286 99.6002 412.586 96.0002C414.986 92.3002 417.186 88.1502 419.186 83.5502L420.686 85.0502C419.286 89.9502 417.136 94.6002 414.236 99.0002C411.336 103.3 408.086 106.8 404.486 109.5C400.986 112.3 397.486 113.7 393.986 113.7ZM372.086 50.8502C376.686 47.1502 380.686 42.9502 384.086 38.2502C387.586 33.5502 390.286 29.0502 392.186 24.7502C394.086 20.3502 395.036 16.9002 395.036 14.4002C395.036 13.9002 394.986 13.5502 394.886 13.3502C394.886 13.1502 394.786 13.0502 394.586 13.0502C393.586 13.0502 391.836 14.8002 389.336 18.3002C386.936 21.8002 384.186 26.4502 381.086 32.2502C377.986 37.9502 374.986 44.1502 372.086 50.8502ZM432.579 114.6C426.479 114.6 421.879 112.9 418.779 109.5C415.779 106.2 414.279 102.1 414.279 97.2002C414.279 92.7002 415.379 87.9502 417.579 82.9502C419.879 77.9502 422.879 73.2502 426.579 68.8502C430.379 64.4502 434.529 60.9002 439.029 58.2002C443.529 55.4002 447.979 54.0002 452.379 54.0002C454.679 54.0002 456.779 54.6002 458.679 55.8002C460.679 57.0002 461.679 59.4502 461.679 63.1502C461.679 66.9502 460.529 70.5502 458.229 73.9502C456.029 77.2502 453.079 80.2002 449.379 82.8002C445.779 85.4002 441.779 87.5502 437.379 89.2502C433.079 90.8502 428.779 91.8502 424.479 92.2502C424.279 93.2502 424.129 94.2002 424.029 95.1002C423.929 96.0002 423.879 96.8502 423.879 97.6502C423.879 99.1502 424.029 100.65 424.329 102.15C424.729 103.65 425.379 105.05 426.279 106.35C427.179 107.55 428.379 108.5 429.879 109.2C431.479 109.9 433.429 110.25 435.729 110.25C440.029 110.25 444.279 109.05 448.479 106.65C452.679 104.15 456.579 100.9 460.179 96.9002C463.779 92.9002 466.829 88.5002 469.329 83.7002L471.129 85.0502C468.429 91.0502 464.979 96.2502 460.779 100.65C456.679 105.05 452.179 108.45 447.279 110.85C442.479 113.35 437.579 114.6 432.579 114.6ZM425.229 89.4002C427.929 88.5002 430.979 87.2002 434.379 85.5002C437.779 83.7002 441.029 81.6002 444.129 79.2002C447.329 76.8002 449.929 74.1502 451.929 71.2502C454.029 68.3502 455.079 65.3002 455.079 62.1002C455.079 61.0002 454.879 60.1502 454.479 59.5502C454.079 58.9502 453.229 58.6502 451.929 58.6502C449.529 58.6502 446.979 59.6002 444.279 61.5002C441.579 63.3002 438.979 65.7002 436.479 68.7002C433.979 71.7002 431.729 75.0002 429.729 78.6002C427.729 82.2002 426.229 85.8002 425.229 89.4002ZM521.345 116.4C516.545 116.4 512.545 114.8 509.345 111.6C506.145 108.4 504.545 103.6 504.545 97.2002C504.545 92.2002 505.495 87.3502 507.395 82.6502C509.395 77.8502 511.995 73.5502 515.195 69.7502C518.395 65.9502 521.945 62.9502 525.845 60.7502C529.745 58.4502 533.595 57.3002 537.395 57.3002C541.495 57.3002 544.295 58.5002 545.795 60.9002C547.295 63.3002 548.045 65.8002 548.045 68.4002C548.045 71.3002 547.345 73.8502 545.945 76.0502C544.645 78.2502 542.845 79.3502 540.545 79.3502C538.845 79.3502 537.395 78.6002 536.195 77.1002C537.695 76.3002 538.995 74.7002 540.095 72.3002C541.195 69.8002 541.745 67.4502 541.745 65.2502C541.745 64.0502 541.495 63.1502 540.995 62.5502C540.595 61.8502 539.745 61.5002 538.445 61.5002C535.745 61.5002 532.945 62.7002 530.045 65.1002C527.245 67.5002 524.595 70.6002 522.095 74.4002C519.695 78.2002 517.695 82.2002 516.095 86.4002C514.595 90.6002 513.845 94.5502 513.845 98.2502C513.845 101.35 514.595 104.2 516.095 106.8C517.595 109.4 520.495 110.7 524.795 110.7C528.795 110.7 532.795 109.6 536.795 107.4C540.895 105.2 544.695 102.05 548.195 97.9502C551.695 93.8502 554.495 89.0502 556.595 83.5502L558.545 85.0502C556.245 91.0502 553.095 96.4502 549.095 101.25C545.095 105.95 540.695 109.65 535.895 112.35C531.095 115.05 526.245 116.4 521.345 116.4ZM560.981 115.05C557.881 115.05 555.281 114 553.181 111.9C550.981 109.9 549.881 106.8 549.881 102.6C549.881 99.0002 550.681 95.1502 552.281 91.0502C553.881 86.8502 556.081 82.7502 558.881 78.7502C561.681 74.6502 564.831 70.9502 568.331 67.6502C571.931 64.2502 575.681 61.5502 579.581 59.5502C583.581 57.5502 587.531 56.5502 591.431 56.5502C595.331 56.5502 598.581 57.6002 601.181 59.7002C603.781 61.7002 605.081 64.4002 605.081 67.8002C605.081 70.3002 604.381 72.0002 602.981 72.9002C601.681 73.8002 599.931 74.2502 597.731 74.2502C597.931 73.4502 598.081 72.6002 598.181 71.7002C598.381 70.7002 598.481 69.8002 598.481 69.0002C598.481 66.7002 597.931 64.7502 596.831 63.1502C595.731 61.4502 593.831 60.6002 591.131 60.6002C588.331 60.6002 585.481 61.6002 582.581 63.6002C579.681 65.5002 576.881 68.1002 574.181 71.4002C571.481 74.6002 569.081 78.1002 566.981 81.9002C564.881 85.7002 563.231 89.4502 562.031 93.1502C560.831 96.8502 560.231 100.15 560.231 103.05C560.231 106.95 561.581 108.9 564.281 108.9C566.581 108.9 569.081 107.85 571.781 105.75C574.481 103.55 577.231 100.8 580.031 97.5002C582.931 94.1002 585.681 90.6002 588.281 87.0002C590.881 83.4002 593.181 80.1002 595.181 77.1002C595.581 76.5002 595.831 76.2002 595.931 76.2002C596.531 76.3002 597.281 76.5002 598.181 76.8002C599.181 77.1002 600.031 77.5002 600.731 78.0002C601.431 78.5002 601.781 79.1502 601.781 79.9502C601.781 80.8502 601.331 82.1002 600.431 83.7002C599.531 85.2002 598.531 86.9502 597.431 88.9502C596.331 90.9502 595.331 93.0002 594.431 95.1002C593.531 97.1002 593.081 99.0002 593.081 100.8C593.081 102.3 593.481 103.8 594.281 105.3C595.081 106.7 596.381 107.4 598.181 107.4C600.881 107.4 604.431 105.45 608.831 101.55C613.231 97.5502 617.681 91.6002 622.181 83.7002L623.681 85.2002C621.581 90.6002 618.881 95.3502 615.581 99.4502C612.281 103.55 608.731 106.75 604.931 109.05C601.231 111.35 597.581 112.5 593.981 112.5C590.281 112.5 587.531 111.4 585.731 109.2C584.031 107 583.181 104.6 583.181 102C583.181 101.4 583.231 100.75 583.331 100.05C583.431 99.2502 583.531 98.4502 583.631 97.6502C579.331 103.45 575.381 107.8 571.781 110.7C568.281 113.6 564.681 115.05 560.981 115.05ZM645.063 111.9C641.663 111.9 638.963 111 636.963 109.2C635.063 107.4 634.113 105.05 634.113 102.15C634.113 99.1502 634.813 96.0002 636.213 92.7002C637.613 89.4002 638.963 86.1502 640.263 82.9502C641.663 79.6502 642.363 76.7002 642.363 74.1002C642.363 70.9002 641.413 68.5502 639.513 67.0502C637.713 65.4502 635.863 64.0002 633.963 62.7002C631.663 68.6002 629.263 74.2002 626.763 79.5002C624.263 84.8002 622.213 88.8002 620.613 91.5002L619.263 88.9502C620.663 86.3502 622.463 82.5502 624.663 77.5502C626.963 72.5502 629.213 66.8502 631.413 60.4502C630.413 59.4502 629.913 58.2502 629.913 56.8502C629.913 53.8502 630.763 51.4002 632.463 49.5002C634.163 47.6002 635.413 46.6502 636.213 46.6502C637.313 46.6502 637.913 47.1502 638.013 48.1502C638.213 49.0502 638.313 49.7502 638.313 50.2502C638.313 50.7502 638.013 51.7502 637.413 53.2502C636.913 54.6502 636.663 55.5002 636.663 55.8002C636.663 57.2002 637.413 58.5002 638.913 59.7002C640.513 60.8002 642.313 62.1002 644.313 63.6002C646.313 65.0002 648.063 66.7502 649.563 68.8502C651.163 70.8502 651.963 73.4502 651.963 76.6502C651.963 79.6502 651.313 82.7002 650.013 85.8002C648.813 88.9002 647.563 91.8502 646.263 94.6502C645.063 97.4502 644.463 99.9002 644.463 102C644.463 103.8 644.913 105 645.813 105.6C646.713 106.2 647.763 106.5 648.963 106.5C651.363 106.5 653.813 105.75 656.313 104.25C658.913 102.75 661.413 100.85 663.813 98.5502C666.213 96.2502 668.363 93.8502 670.263 91.3502C672.163 88.7502 673.563 86.3502 674.463 84.1502L676.413 85.6502C674.513 89.8502 671.913 94.0002 668.613 98.1002C665.313 102.1 661.613 105.4 657.513 108C653.513 110.6 649.363 111.9 645.063 111.9ZM687.462 114.6C681.362 114.6 676.762 112.9 673.662 109.5C670.662 106.2 669.162 102.1 669.162 97.2002C669.162 92.7002 670.262 87.9502 672.462 82.9502C674.762 77.9502 677.762 73.2502 681.462 68.8502C685.262 64.4502 689.412 60.9002 693.912 58.2002C698.412 55.4002 702.862 54.0002 707.262 54.0002C709.562 54.0002 711.662 54.6002 713.562 55.8002C715.562 57.0002 716.562 59.4502 716.562 63.1502C716.562 66.9502 715.412 70.5502 713.112 73.9502C710.912 77.2502 707.962 80.2002 704.262 82.8002C700.662 85.4002 696.662 87.5502 692.262 89.2502C687.962 90.8502 683.662 91.8502 679.362 92.2502C679.162 93.2502 679.012 94.2002 678.912 95.1002C678.812 96.0002 678.762 96.8502 678.762 97.6502C678.762 99.1502 678.912 100.65 679.212 102.15C679.612 103.65 680.262 105.05 681.162 106.35C682.062 107.55 683.262 108.5 684.762 109.2C686.362 109.9 688.312 110.25 690.612 110.25C694.912 110.25 699.162 109.05 703.362 106.65C707.562 104.15 711.462 100.9 715.062 96.9002C718.662 92.9002 721.712 88.5002 724.212 83.7002L726.012 85.0502C723.312 91.0502 719.862 96.2502 715.662 100.65C711.562 105.05 707.062 108.45 702.162 110.85C697.362 113.35 692.462 114.6 687.462 114.6ZM680.112 89.4002C682.812 88.5002 685.862 87.2002 689.262 85.5002C692.662 83.7002 695.912 81.6002 699.012 79.2002C702.212 76.8002 704.812 74.1502 706.812 71.2502C708.912 68.3502 709.962 65.3002 709.962 62.1002C709.962 61.0002 709.762 60.1502 709.362 59.5502C708.962 58.9502 708.112 58.6502 706.812 58.6502C704.412 58.6502 701.862 59.6002 699.162 61.5002C696.462 63.3002 693.862 65.7002 691.362 68.7002C688.862 71.7002 686.612 75.0002 684.612 78.6002C682.612 82.2002 681.112 85.8002 680.112 89.4002ZM770.528 112.8C766.228 112.8 763.178 111.45 761.378 108.75C759.578 106.15 758.678 102.95 758.678 99.1502C758.678 96.0502 759.178 92.8502 760.178 89.5502C761.178 86.2502 762.478 83.1502 764.078 80.2502C765.778 77.3502 767.628 75.0002 769.628 73.2002C771.728 71.4002 773.828 70.5002 775.928 70.5002C776.428 70.5002 776.928 70.6002 777.428 70.8002C778.028 70.9002 778.578 71.0502 779.078 71.2502C778.178 72.0502 777.078 73.5502 775.778 75.7502C774.578 77.8502 773.428 80.3002 772.328 83.1002C771.228 85.8002 770.278 88.5002 769.478 91.2002C768.778 93.9002 768.428 96.2002 768.428 98.1002C768.428 101.1 768.928 103.3 769.928 104.7C770.928 106 772.228 106.65 773.828 106.65C775.928 106.65 778.428 105.55 781.328 103.35C784.228 101.05 787.078 98.1502 789.878 94.6502C787.078 92.3502 784.878 89.3502 783.278 85.6502C781.778 81.8502 781.028 78.0002 781.028 74.1002C781.028 70.8002 781.578 67.7002 782.678 64.8002C783.878 61.9002 785.578 59.6002 787.778 57.9002C789.978 56.1002 792.628 55.2002 795.728 55.2002C799.828 55.2002 802.578 56.3002 803.978 58.5002C805.378 60.7002 806.078 63.4502 806.078 66.7502C806.078 70.6502 805.128 75.0002 803.228 79.8002C801.328 84.5002 798.928 89.0502 796.028 93.4502C797.828 94.4502 799.728 94.9502 801.728 94.9502C803.328 94.9502 805.128 94.6502 807.128 94.0502C809.128 93.3502 811.078 92.2002 812.978 90.6002C814.978 89.0002 816.578 86.8502 817.778 84.1502L819.578 85.6502C817.578 90.3502 814.728 93.7002 811.028 95.7002C807.428 97.6002 803.978 98.5502 800.678 98.5502C799.378 98.5502 798.128 98.4502 796.928 98.2502C795.728 97.9502 794.578 97.5502 793.478 97.0502C790.078 101.55 786.328 105.3 782.228 108.3C778.228 111.3 774.328 112.8 770.528 112.8ZM792.578 90.7502C795.078 87.0502 797.128 83.2002 798.728 79.2002C800.428 75.1002 801.278 71.2502 801.278 67.6502C801.278 64.7502 800.828 62.6502 799.928 61.3502C799.128 59.9502 798.078 59.2502 796.778 59.2502C794.778 59.2502 792.728 60.7002 790.628 63.6002C788.528 66.5002 787.478 70.1502 787.478 74.5502C787.478 77.4502 787.878 80.4002 788.678 83.4002C789.578 86.3002 790.878 88.7502 792.578 90.7502ZM813.013 150C812.013 150 810.863 149.65 809.563 148.95C808.263 148.35 807.163 147.1 806.263 145.2C805.263 143.3 804.763 140.5 804.763 136.8C804.763 132.4 805.513 126.65 807.013 119.55C808.513 112.55 810.563 104.8 813.163 96.3002C815.763 87.8002 818.763 79.1002 822.163 70.2002C825.563 61.2002 829.213 52.5502 833.113 44.2502C837.113 35.8502 841.163 28.3502 845.263 21.7502C849.463 15.0502 853.563 9.75024 857.563 5.85024C861.563 1.95024 865.363 0.000239849 868.963 0.000239849C871.063 0.000239849 872.413 0.65024 873.013 1.95024C873.713 3.25024 874.063 4.80024 874.063 6.60024C874.063 10.9002 872.863 15.6002 870.463 20.7002C868.163 25.8002 865.063 30.9502 861.163 36.1502C857.263 41.2502 852.963 46.1502 848.263 50.8502C843.563 55.4502 838.813 59.4002 834.013 62.7002C833.513 63.9002 833.013 65.1502 832.513 66.4502C832.113 67.6502 831.663 68.9002 831.163 70.2002C832.263 70.4002 833.113 71.0002 833.713 72.0002C834.413 72.9002 834.813 73.9002 834.913 75.0002C835.613 79.5002 836.363 83.5502 837.163 87.1502C837.963 90.6502 839.163 93.4002 840.763 95.4002C842.463 97.4002 844.863 98.4002 847.963 98.4002C851.463 98.4002 854.413 97.1502 856.813 94.6502C859.213 92.0502 861.813 88.4002 864.613 83.7002L866.863 85.2002C864.363 91.2002 861.163 95.5502 857.263 98.2502C853.463 100.95 850.113 102.3 847.213 102.3C845.413 102.3 843.513 101.85 841.513 100.95C839.613 100.05 837.813 98.8502 836.113 97.3502C836.113 103.65 835.413 109.9 834.013 116.1C832.713 122.3 830.963 127.95 828.763 133.05C826.563 138.15 824.113 142.25 821.413 145.35C818.713 148.45 815.913 150 813.013 150ZM816.913 142.8C818.013 142.8 819.263 141.8 820.663 139.8C822.063 137.8 823.413 135.15 824.713 131.85C826.113 128.65 827.363 125.1 828.463 121.2C829.563 117.3 830.463 113.4 831.163 109.5C831.863 105.6 832.213 102.1 832.213 99.0002C832.213 95.9002 831.813 93.1002 831.013 90.6002C830.213 88.0002 828.913 84.9502 827.113 81.4502C824.613 88.9502 822.363 96.2002 820.363 103.2C818.363 110.2 816.813 116.5 815.713 122.1C814.613 127.7 814.063 132.2 814.063 135.6C814.063 140.4 815.013 142.8 816.913 142.8ZM836.413 56.5502C842.913 50.5502 848.513 44.5502 853.213 38.5502C858.013 32.4502 861.713 27.0502 864.313 22.3502C866.913 17.5502 868.213 14.1502 868.213 12.1502C868.213 10.7502 867.513 10.0502 866.113 10.0502C863.513 10.0502 860.563 12.2002 857.263 16.5002C853.963 20.7002 850.513 26.3002 846.913 33.3002C843.313 40.3002 839.813 48.0502 836.413 56.5502ZM9.45 330C6.95 330 4.75 329.3 2.85 327.9C0.95 326.6 -2.12342e-07 324.65 -2.12342e-07 322.05C-2.12342e-07 318.85 0.8 316 2.4 313.5C4 311 6.15 308.7 8.85 306.6C11.55 304.5 14.65 302.5 18.15 300.6C21.65 298.7 25.3 296.8 29.1 294.9C30.5 291.2 31.9 287.1 33.3 282.6C34.8 278 36.2 272.95 37.5 267.45C34.3 272.65 30.85 277.15 27.15 280.95C23.55 284.65 19.7 286.5 15.6 286.5C13.7 286.5 11.8 286.1 9.9 285.3C8.1 284.4 6.6 283.05 5.4 281.25C4.2 279.45 3.6 277.15 3.6 274.35C3.6 271.55 4.05 268.3 4.95 264.6C5.95 260.9 7.15 257.3 8.55 253.8C9.95 250.3 11.4 247.4 12.9 245.1C14.4 242.8 15.7 241.65 16.8 241.65C17.2 241.65 17.9 241.8 18.9 242.1C20 242.4 21 242.85 21.9 243.45C22.9 243.95 23.4 244.5 23.4 245.1C22.5 246.4 21.5 248.25 20.4 250.65C19.3 253.05 18.2 255.75 17.1 258.75C16.1 261.65 15.25 264.5 14.55 267.3C13.85 270.1 13.5 272.5 13.5 274.5C13.5 276.3 13.9 277.75 14.7 278.85C15.5 279.95 16.9 280.5 18.9 280.5C20.8 280.5 22.9 279.6 25.2 277.8C27.6 275.9 29.95 273.5 32.25 270.6C34.65 267.7 36.85 264.6 38.85 261.3C39.15 260.2 39.4 259.1 39.6 258C39.9 256.8 40.15 255.6 40.35 254.4C40.65 253 41.35 251.4 42.45 249.6C43.65 247.7 45.5 246.75 48 246.75C48.5 246.75 49 246.8 49.5 246.9C50 246.9 50.55 247 51.15 247.2C51.15 248.8 50.65 251.8 49.65 256.2C48.75 260.5 47.4 265.55 45.6 271.35C43.9 277.15 41.85 283.1 39.45 289.2C44.15 287.4 48.75 284.45 53.25 280.35C57.75 276.15 61.4 270.6 64.2 263.7L66.15 265.2C64.65 270 62.35 274.2 59.25 277.8C56.25 281.3 52.85 284.35 49.05 286.95C45.25 289.45 41.5 291.55 37.8 293.25C35.2 299.65 32.35 305.65 29.25 311.25C26.25 316.85 23.05 321.35 19.65 324.75C16.35 328.25 12.95 330 9.45 330ZM8.7 325.2C10.2 325.2 12.7 323.2 16.2 319.2C19.8 315.3 23.6 308.4 27.6 298.5C23.5 300.7 19.7 302.85 16.2 304.95C12.7 307.15 9.9 309.5 7.8 312C5.7 314.5 4.65 317.4 4.65 320.7C4.65 321.5 4.95 322.45 5.55 323.55C6.15 324.65 7.2 325.2 8.7 325.2ZM71.6508 292.8C67.3508 292.8 64.3008 291.45 62.5008 288.75C60.7008 286.15 59.8008 282.95 59.8008 279.15C59.8008 276.05 60.3008 272.85 61.3008 269.55C62.3008 266.25 63.6008 263.15 65.2008 260.25C66.9008 257.35 68.7508 255 70.7508 253.2C72.8508 251.4 74.9508 250.5 77.0508 250.5C77.5508 250.5 78.0508 250.6 78.5508 250.8C79.1508 250.9 79.7008 251.05 80.2008 251.25C79.3008 252.05 78.2008 253.55 76.9008 255.75C75.7008 257.85 74.5508 260.3 73.4508 263.1C72.3508 265.8 71.4008 268.5 70.6008 271.2C69.9008 273.9 69.5508 276.2 69.5508 278.1C69.5508 281.1 70.0508 283.3 71.0508 284.7C72.0508 286 73.3508 286.65 74.9508 286.65C77.0508 286.65 79.5508 285.55 82.4508 283.35C85.3508 281.05 88.2008 278.15 91.0008 274.65C88.2008 272.35 86.0008 269.35 84.4008 265.65C82.9008 261.85 82.1508 258 82.1508 254.1C82.1508 250.8 82.7008 247.7 83.8008 244.8C85.0008 241.9 86.7008 239.6 88.9008 237.9C91.1008 236.1 93.7508 235.2 96.8508 235.2C100.951 235.2 103.701 236.3 105.101 238.5C106.501 240.7 107.201 243.45 107.201 246.75C107.201 250.65 106.251 255 104.351 259.8C102.451 264.5 100.051 269.05 97.1508 273.45C98.9508 274.45 100.851 274.95 102.851 274.95C104.451 274.95 106.251 274.65 108.251 274.05C110.251 273.35 112.201 272.2 114.101 270.6C116.101 269 117.701 266.85 118.901 264.15L120.701 265.65C118.701 270.35 115.851 273.7 112.151 275.7C108.551 277.6 105.101 278.55 101.801 278.55C100.501 278.55 99.2508 278.45 98.0508 278.25C96.8508 277.95 95.7008 277.55 94.6008 277.05C91.2008 281.55 87.4508 285.3 83.3508 288.3C79.3508 291.3 75.4508 292.8 71.6508 292.8ZM93.7008 270.75C96.2008 267.05 98.2508 263.2 99.8508 259.2C101.551 255.1 102.401 251.25 102.401 247.65C102.401 244.75 101.951 242.65 101.051 241.35C100.251 239.95 99.2008 239.25 97.9008 239.25C95.9008 239.25 93.8508 240.7 91.7508 243.6C89.6508 246.5 88.6008 250.15 88.6008 254.55C88.6008 257.45 89.0008 260.4 89.8008 263.4C90.7008 266.3 92.0008 268.75 93.7008 270.75ZM127.336 292.5C123.936 292.5 121.186 291 119.086 288C117.086 284.9 116.086 281.35 116.086 277.35C116.086 274.45 116.536 271.1 117.436 267.3C118.436 263.5 119.636 259.75 121.036 256.05C122.436 252.35 123.886 249.3 125.386 246.9C126.886 244.5 128.186 243.3 129.286 243.3C129.786 243.3 130.636 243.6 131.836 244.2C133.036 244.7 134.036 245.4 134.836 246.3C133.736 248 132.386 250.6 130.786 254.1C129.186 257.6 127.786 261.35 126.586 265.35C125.386 269.35 124.786 273.05 124.786 276.45C124.786 277.25 124.886 278.5 125.086 280.2C125.286 281.8 125.786 283.25 126.586 284.55C127.386 285.85 128.586 286.5 130.186 286.5C132.086 286.5 134.036 285.55 136.036 283.65C138.036 281.65 140.036 279.1 142.036 276C144.136 272.9 146.136 269.55 148.036 265.95C149.936 262.35 151.686 258.9 153.286 255.6C154.986 252.3 156.386 249.55 157.486 247.35C158.086 247.45 158.936 247.65 160.036 247.95C161.236 248.25 162.286 248.65 163.186 249.15C164.186 249.65 164.686 250.35 164.686 251.25C164.686 251.65 164.186 253 163.186 255.3C162.186 257.5 160.986 260.25 159.586 263.55C158.286 266.75 157.136 270 156.136 273.3C155.136 276.6 154.636 279.5 154.636 282C154.636 283.8 154.986 285.25 155.686 286.35C156.486 287.45 157.786 288 159.586 288C161.686 288 164.236 287.05 167.236 285.15C170.236 283.25 173.286 280.5 176.386 276.9C179.486 273.2 182.236 268.8 184.636 263.7L186.586 265.05C184.486 270.45 181.736 275.25 178.336 279.45C174.936 283.55 171.336 286.75 167.536 289.05C163.736 291.35 160.036 292.5 156.436 292.5C153.836 292.5 151.736 292 150.136 291C148.636 290 147.536 288.65 146.836 286.95C146.236 285.25 145.936 283.4 145.936 281.4C145.936 280.2 146.036 279 146.236 277.8C146.436 276.5 146.686 275.2 146.986 273.9C145.186 277.2 143.236 280.3 141.136 283.2C139.036 286 136.836 288.25 134.536 289.95C132.236 291.65 129.836 292.5 127.336 292.5ZM207.807 291.9C204.407 291.9 201.707 291 199.707 289.2C197.807 287.4 196.857 285.05 196.857 282.15C196.857 279.15 197.557 276 198.957 272.7C200.357 269.4 201.707 266.15 203.007 262.95C204.407 259.65 205.107 256.7 205.107 254.1C205.107 250.9 204.157 248.55 202.257 247.05C200.457 245.45 198.607 244 196.707 242.7C194.407 248.6 192.007 254.2 189.507 259.5C187.007 264.8 184.957 268.8 183.357 271.5L182.007 268.95C183.407 266.35 185.207 262.55 187.407 257.55C189.707 252.55 191.957 246.85 194.157 240.45C193.157 239.45 192.657 238.25 192.657 236.85C192.657 233.85 193.507 231.4 195.207 229.5C196.907 227.6 198.157 226.65 198.957 226.65C200.057 226.65 200.657 227.15 200.757 228.15C200.957 229.05 201.057 229.75 201.057 230.25C201.057 230.75 200.757 231.75 200.157 233.25C199.657 234.65 199.407 235.5 199.407 235.8C199.407 237.2 200.157 238.5 201.657 239.7C203.257 240.8 205.057 242.1 207.057 243.6C209.057 245 210.807 246.75 212.307 248.85C213.907 250.85 214.707 253.45 214.707 256.65C214.707 259.65 214.057 262.7 212.757 265.8C211.557 268.9 210.307 271.85 209.007 274.65C207.807 277.45 207.207 279.9 207.207 282C207.207 283.8 207.657 285 208.557 285.6C209.457 286.2 210.507 286.5 211.707 286.5C214.107 286.5 216.557 285.75 219.057 284.25C221.657 282.75 224.157 280.85 226.557 278.55C228.957 276.25 231.107 273.85 233.007 271.35C234.907 268.75 236.307 266.35 237.207 264.15L239.157 265.65C237.257 269.85 234.657 274 231.357 278.1C228.057 282.1 224.357 285.4 220.257 288C216.257 290.6 212.107 291.9 207.807 291.9ZM288.721 295.65C284.021 295.65 280.271 294.6 277.471 292.5C274.771 290.5 272.871 288 271.771 285C270.571 282 269.971 279 269.971 276C269.971 273 270.371 270.7 271.171 269.1C271.971 267.5 272.921 266.3 274.021 265.5C275.221 264.7 276.321 264.1 277.321 263.7C278.421 263.3 279.171 262.9 279.571 262.5C282.571 259.2 285.321 255.75 287.821 252.15C290.321 248.55 292.521 244.75 294.421 240.75V238.95C294.421 235.25 295.021 232.65 296.221 231.15C297.521 229.55 298.871 228.75 300.271 228.75C301.071 228.75 301.671 228.95 302.071 229.35C302.471 229.75 302.671 230.2 302.671 230.7C302.671 231.2 302.521 232 302.221 233.1C301.921 234.2 301.771 235.6 301.771 237.3C301.771 240.6 302.421 244.2 303.721 248.1C305.021 251.9 306.321 255.95 307.621 260.25C308.921 264.45 309.571 268.85 309.571 273.45C309.571 274.75 309.471 276.05 309.271 277.35C309.171 278.55 308.971 279.7 308.671 280.8C312.171 280.2 315.471 278.65 318.571 276.15C321.671 273.55 324.671 269.45 327.571 263.85L328.921 265.35C327.021 270.85 324.171 275.05 320.371 277.95C316.571 280.75 312.421 282.5 307.921 283.2C306.321 287.5 303.771 290.65 300.271 292.65C296.871 294.65 293.021 295.65 288.721 295.65ZM289.021 290.4C290.221 290.4 291.821 290 293.821 289.2C295.821 288.4 297.371 286.35 298.471 283.05C294.271 282.25 290.521 280.6 287.221 278.1C284.021 275.6 281.621 273.1 280.021 270.6C277.821 270.7 276.721 272.45 276.721 275.85C276.721 279.45 277.771 282.8 279.871 285.9C282.071 288.9 285.121 290.4 289.021 290.4ZM299.221 280.65C299.421 279.65 299.571 278.6 299.671 277.5C299.771 276.4 299.821 275.1 299.821 273.6C299.821 268.9 299.221 264.25 298.021 259.65C296.921 254.95 295.971 250.55 295.171 246.45C292.871 250.25 290.421 253.9 287.821 257.4C285.321 260.8 282.921 263.65 280.621 265.95C282.121 269.15 284.421 272.15 287.521 274.95C290.721 277.75 294.621 279.65 299.221 280.65ZM337.43 294.9C333.13 294.9 329.83 293.65 327.53 291.15C325.23 288.65 324.08 284.95 324.08 280.05C324.08 275.65 324.88 270.25 326.48 263.85C328.18 257.35 330.28 250.7 332.78 243.9C331.78 243.7 330.83 243.55 329.93 243.45C329.03 243.25 328.18 243 327.38 242.7V240C328.18 240.1 329.13 240.2 330.23 240.3C331.33 240.4 332.58 240.5 333.98 240.6C336.08 235.2 338.33 230 340.73 225C343.13 219.9 345.48 215.4 347.78 211.5C350.18 207.5 352.43 204.35 354.53 202.05C356.73 199.65 358.58 198.45 360.08 198.45C360.88 198.45 361.58 198.75 362.18 199.35C362.88 199.85 363.23 200.65 363.23 201.75C363.23 203.45 362.18 206.25 360.08 210.15C357.98 213.95 355.38 218.5 352.28 223.8C349.18 229.1 346.18 234.85 343.28 241.05C344.18 241.05 345.08 241.05 345.98 241.05C346.98 241.05 347.93 241.05 348.83 241.05C352.13 241.05 355.58 241 359.18 240.9C362.88 240.8 366.58 240.55 370.28 240.15V242.85C364.78 243.45 359.83 243.9 355.43 244.2C351.13 244.5 347.28 244.65 343.88 244.65C343.48 244.65 343.08 244.65 342.68 244.65C342.38 244.65 342.03 244.65 341.63 244.65C339.33 249.95 337.38 255.4 335.78 261C334.18 266.6 333.38 272.05 333.38 277.35C333.38 281.65 334.03 284.75 335.33 286.65C336.63 288.45 338.78 289.35 341.78 289.35C346.98 289.35 352.08 287.05 357.08 282.45C362.08 277.85 366.48 271.6 370.28 263.7L372.23 265.2C369.83 270.8 366.78 275.85 363.08 280.35C359.48 284.85 355.48 288.4 351.08 291C346.68 293.6 342.13 294.9 337.43 294.9ZM373.903 330C371.403 330 369.203 329.3 367.303 327.9C365.403 326.6 364.453 324.65 364.453 322.05C364.453 318.85 365.253 316 366.853 313.5C368.453 311 370.603 308.7 373.303 306.6C376.003 304.5 379.103 302.5 382.603 300.6C386.103 298.7 389.753 296.8 393.553 294.9C394.953 291.2 396.353 287.1 397.753 282.6C399.253 278 400.653 272.95 401.953 267.45C398.753 272.65 395.303 277.15 391.603 280.95C388.003 284.65 384.153 286.5 380.053 286.5C378.153 286.5 376.253 286.1 374.353 285.3C372.553 284.4 371.053 283.05 369.853 281.25C368.653 279.45 368.053 277.15 368.053 274.35C368.053 271.55 368.503 268.3 369.403 264.6C370.403 260.9 371.603 257.3 373.003 253.8C374.403 250.3 375.853 247.4 377.353 245.1C378.853 242.8 380.153 241.65 381.253 241.65C381.653 241.65 382.353 241.8 383.353 242.1C384.453 242.4 385.453 242.85 386.353 243.45C387.353 243.95 387.853 244.5 387.853 245.1C386.953 246.4 385.953 248.25 384.853 250.65C383.753 253.05 382.653 255.75 381.553 258.75C380.553 261.65 379.703 264.5 379.003 267.3C378.303 270.1 377.953 272.5 377.953 274.5C377.953 276.3 378.353 277.75 379.153 278.85C379.953 279.95 381.353 280.5 383.353 280.5C385.253 280.5 387.353 279.6 389.653 277.8C392.053 275.9 394.403 273.5 396.703 270.6C399.103 267.7 401.303 264.6 403.303 261.3C403.603 260.2 403.853 259.1 404.053 258C404.353 256.8 404.603 255.6 404.803 254.4C405.103 253 405.803 251.4 406.903 249.6C408.103 247.7 409.953 246.75 412.453 246.75C412.953 246.75 413.453 246.8 413.953 246.9C414.453 246.9 415.003 247 415.603 247.2C415.603 248.8 415.103 251.8 414.103 256.2C413.203 260.5 411.853 265.55 410.053 271.35C408.353 277.15 406.303 283.1 403.903 289.2C408.603 287.4 413.203 284.45 417.703 280.35C422.203 276.15 425.853 270.6 428.653 263.7L430.603 265.2C429.103 270 426.803 274.2 423.703 277.8C420.703 281.3 417.303 284.35 413.503 286.95C409.703 289.45 405.953 291.55 402.253 293.25C399.653 299.65 396.803 305.65 393.703 311.25C390.703 316.85 387.503 321.35 384.103 324.75C380.803 328.25 377.403 330 373.903 330ZM373.153 325.2C374.653 325.2 377.153 323.2 380.653 319.2C384.253 315.3 388.053 308.4 392.053 298.5C387.953 300.7 384.153 302.85 380.653 304.95C377.153 307.15 374.353 309.5 372.253 312C370.153 314.5 369.103 317.4 369.103 320.7C369.103 321.5 369.403 322.45 370.003 323.55C370.603 324.65 371.653 325.2 373.153 325.2ZM438.204 292.5C433.904 292.5 430.804 291 428.904 288C427.104 285.1 426.204 281.45 426.204 277.05C426.204 272.25 427.104 266.55 428.904 259.95C430.704 253.35 433.054 246.4 435.954 239.1C438.954 231.8 442.204 224.7 445.704 217.8C449.204 210.8 452.704 204.45 456.204 198.75C459.704 193.05 462.904 188.5 465.804 185.1C468.804 181.7 471.154 180 472.854 180C473.954 180 474.854 180.65 475.554 181.95C476.254 183.15 476.804 184.65 477.204 186.45C477.604 188.15 477.804 189.7 477.804 191.1C477.804 193.8 477.104 197.35 475.704 201.75C474.404 206.05 472.504 210.9 470.004 216.3C467.604 221.6 464.704 227 461.304 232.5C458.004 237.9 454.354 243.1 450.354 248.1C446.454 253.1 442.304 257.4 437.904 261C437.304 263.7 436.804 266.35 436.404 268.95C436.104 271.45 435.954 273.85 435.954 276.15C435.954 280.05 436.504 282.95 437.604 284.85C438.704 286.75 440.354 287.7 442.554 287.7C445.254 287.7 447.904 286.5 450.504 284.1C453.204 281.7 455.704 278.7 458.004 275.1C460.404 271.4 462.454 267.6 464.154 263.7L466.404 264.9C462.404 273.4 458.054 280.15 453.354 285.15C448.654 290.05 443.604 292.5 438.204 292.5ZM439.254 255.9C442.754 252.4 446.154 248.4 449.454 243.9C452.754 239.3 455.804 234.55 458.604 229.65C461.504 224.75 464.054 220 466.254 215.4C468.454 210.8 470.154 206.7 471.354 203.1C472.554 199.4 473.154 196.55 473.154 194.55C473.154 193.55 473.004 192.9 472.704 192.6C472.504 192.3 472.304 192.15 472.104 192.15C471.304 192.15 469.904 193.45 467.904 196.05C466.004 198.55 463.754 201.95 461.154 206.25C458.554 210.55 455.904 215.45 453.204 220.95C450.504 226.45 447.904 232.2 445.404 238.2C443.004 244.2 440.954 250.1 439.254 255.9ZM477.403 294.6C471.303 294.6 466.703 292.9 463.603 289.5C460.603 286.2 459.103 282.1 459.103 277.2C459.103 272.7 460.203 267.95 462.403 262.95C464.703 257.95 467.703 253.25 471.403 248.85C475.203 244.45 479.353 240.9 483.853 238.2C488.353 235.4 492.803 234 497.203 234C499.503 234 501.603 234.6 503.503 235.8C505.503 237 506.503 239.45 506.503 243.15C506.503 246.95 505.353 250.55 503.053 253.95C500.853 257.25 497.903 260.2 494.203 262.8C490.603 265.4 486.603 267.55 482.203 269.25C477.903 270.85 473.603 271.85 469.303 272.25C469.103 273.25 468.953 274.2 468.853 275.1C468.753 276 468.703 276.85 468.703 277.65C468.703 279.15 468.853 280.65 469.153 282.15C469.553 283.65 470.203 285.05 471.103 286.35C472.003 287.55 473.203 288.5 474.703 289.2C476.303 289.9 478.253 290.25 480.553 290.25C484.853 290.25 489.103 289.05 493.303 286.65C497.503 284.15 501.403 280.9 505.003 276.9C508.603 272.9 511.653 268.5 514.153 263.7L515.953 265.05C513.253 271.05 509.803 276.25 505.603 280.65C501.503 285.05 497.003 288.45 492.103 290.85C487.303 293.35 482.403 294.6 477.403 294.6ZM470.053 269.4C472.753 268.5 475.803 267.2 479.203 265.5C482.603 263.7 485.853 261.6 488.953 259.2C492.153 256.8 494.753 254.15 496.753 251.25C498.853 248.35 499.903 245.3 499.903 242.1C499.903 241 499.703 240.15 499.303 239.55C498.903 238.95 498.053 238.65 496.753 238.65C494.353 238.65 491.803 239.6 489.103 241.5C486.403 243.3 483.803 245.7 481.303 248.7C478.803 251.7 476.553 255 474.553 258.6C472.553 262.2 471.053 265.8 470.053 269.4Z" fill="rgb(88, 101, 126)"/>
</svg>
